<?xml version="1.0" encoding="UTF-8"?>
<svg id="Layer_1" data-name="Layer 1" xmlns="http://www.w3.org/2000/svg" viewBox="0 0 1000 1000">
  <defs>
    <style>
      .cls-1 {
        fill: #ff700f;
      }

      .cls-2 {
        fill: #26130d;
      }
    </style>
  </defs>
  <path class="cls-2" d="M167.48,396.66c-2.72.96-5.65,1.45-8.78,1.45s-5.9-.43-8.55-1.29c-2.66-.86-4.91-1.99-6.75-3.41-1.84-1.41-3.07-2.98-3.67-4.69l-14.73,5.4c1.5,4.12,3.97,7.64,7.4,10.58,3.43,2.94,7.43,5.19,11.99,6.75,4.57,1.56,9.34,2.35,14.31,2.35,6,0,11.55-1.14,16.66-3.41,5.1-2.27,9.2-5.46,12.28-9.55,3.09-4.09,4.63-8.86,4.63-14.31s-1.54-9.89-4.63-13.6c-3.09-3.71-7.18-6.68-12.28-8.91-5.1-2.23-10.65-3.82-16.66-4.76-3.3-.56-6.3-1.17-9-1.83-2.7-.66-4.86-1.73-6.46-3.18-1.61-1.46-2.41-3.62-2.41-6.5,0-2.23.86-4.2,2.57-5.92,1.71-1.71,3.93-3.08,6.66-4.08,2.72-1.01,5.6-1.49,8.65-1.45,3.04,0,5.89.42,8.55,1.25,2.66.84,4.91,1.96,6.75,3.38,1.84,1.41,3.06,2.98,3.67,4.69l14.79-5.34c-1.5-4.16-3.98-7.72-7.43-10.68-3.45-2.96-7.47-5.21-12.06-6.75-4.59-1.54-9.35-2.31-14.28-2.31-5.92,0-11.43,1.14-16.53,3.41-5.1,2.27-9.22,5.45-12.35,9.52-3.13,4.07-4.69,8.83-4.69,14.28,0,5.79,1.47,10.5,4.41,14.15,2.94,3.64,6.93,6.5,11.99,8.55,5.06,2.06,10.78,3.58,17.17,4.57,2.91.47,5.74,1.16,8.49,2.06,2.74.9,4.99,2.11,6.75,3.63,1.76,1.52,2.64,3.46,2.64,5.82s-.84,4.34-2.51,6.08c-1.67,1.74-3.87,3.09-6.59,4.05Z"/>
  <path class="cls-2" d="M216.74,409.23c4.87,3.04,10.26,4.57,16.17,4.57,4.46,0,8.63-.88,12.51-2.64,3.88-1.76,7.29-4.19,10.23-7.3,2.94-3.11,5.24-6.7,6.91-10.77,1.67-4.07,2.51-8.45,2.51-13.12,0-6.26-1.45-11.96-4.34-17.11s-6.77-9.24-11.64-12.28c-4.87-3.04-10.26-4.57-16.17-4.57-4.42,0-8.58.88-12.48,2.64-3.9,1.76-7.32,4.19-10.26,7.3-2.94,3.11-5.24,6.71-6.91,10.8-1.67,4.09-2.51,8.5-2.51,13.22,0,6.22,1.45,11.89,4.34,17.01,2.89,5.12,6.77,9.21,11.64,12.25ZM218.64,370.9c1.46-2.79,3.43-5.02,5.92-6.69,2.49-1.67,5.27-2.51,8.36-2.51s5.76.83,8.26,2.48c2.51,1.65,4.5,3.86,5.98,6.62,1.48,2.77,2.22,5.82,2.22,9.16s-.72,6.26-2.15,9c-1.44,2.74-3.4,4.95-5.88,6.62-2.49,1.67-5.3,2.51-8.42,2.51-2.96,0-5.69-.8-8.2-2.41-2.51-1.61-4.51-3.78-6.01-6.53-1.5-2.74-2.25-5.81-2.25-9.2s.73-6.28,2.19-9.07Z"/>
  <polygon class="cls-2" points="318.58 347.75 301.79 394.05 284.94 347.75 268.22 347.75 291.63 412.12 311.89 412.12 335.3 347.75 318.58 347.75"/>
  <rect class="cls-2" x="344.88" y="347.81" width="15.69" height="64.31"/>
  <path class="cls-2" d="M386.65,409.23c4.87,3.04,10.26,4.57,16.17,4.57,6.43,0,12.24-1.81,17.43-5.43,5.19-3.62,9.09-8.28,11.7-13.99l-16.01-3.73c-1.5,2.31-3.38,4.15-5.63,5.5-2.25,1.35-4.75,2-7.49,1.96-2.66-.04-5.04-.63-7.14-1.77-2.1-1.14-3.84-2.66-5.21-4.57-1.37-1.91-2.36-4.06-2.96-6.46h47.01c.73-5.14.43-10.07-.9-14.79-1.33-4.72-3.45-8.92-6.37-12.6-2.92-3.69-6.46-6.59-10.64-8.71-4.18-2.12-8.78-3.18-13.79-3.18-4.42,0-8.58.88-12.48,2.64-3.9,1.76-7.32,4.19-10.26,7.3-2.94,3.11-5.24,6.71-6.91,10.8-1.67,4.09-2.51,8.48-2.51,13.15,0,6.22,1.45,11.9,4.34,17.04,2.89,5.14,6.77,9.24,11.64,12.28ZM390.12,366.5c1.52-2.08,3.38-3.73,5.56-4.95,2.19-1.22,4.57-1.83,7.14-1.83s4.97.62,7.2,1.87c2.23,1.24,4.1,2.91,5.63,4.98,1.52,2.08,2.52,4.41,2.99,6.98h-31.64c.56-2.61,1.6-4.96,3.12-7.04Z"/>
  <path class="cls-2" d="M460.77,412.12v-36.53c0-2.53.61-4.83,1.83-6.91,1.22-2.08,2.87-3.73,4.95-4.95,2.08-1.22,4.38-1.83,6.91-1.83,1.63,0,3.26.32,4.89.96l6.17-15.82c-2.36-.69-4.72-1.03-7.08-1.03-3.52,0-6.8.68-9.84,2.03-3.05,1.35-5.66,3.18-7.85,5.5l-.06-5.72h-15.69l.06,64.31h15.69Z"/>
  <polygon class="cls-2" points="547.2 396.43 514.85 396.43 547.2 363.51 547.2 347.81 492.28 347.81 492.28 363.51 524.63 363.51 492.28 396.43 492.28 412.12 547.2 412.12 547.2 396.43"/>
  <path class="cls-2" d="M570.71,409.23c4.87,3.04,10.26,4.57,16.17,4.57,4.46,0,8.63-.88,12.51-2.64,3.88-1.76,7.29-4.19,10.23-7.3,2.94-3.11,5.24-6.7,6.91-10.77,1.67-4.07,2.51-8.45,2.51-13.12,0-6.26-1.45-11.96-4.34-17.11-2.89-5.14-6.77-9.24-11.64-12.28-4.87-3.04-10.26-4.57-16.17-4.57-4.42,0-8.58.88-12.48,2.64-3.9,1.76-7.32,4.19-10.26,7.3-2.94,3.11-5.24,6.71-6.91,10.8-1.67,4.09-2.51,8.5-2.51,13.22,0,6.22,1.45,11.89,4.34,17.01,2.89,5.12,6.77,9.21,11.64,12.25ZM572.6,370.9c1.46-2.79,3.43-5.02,5.92-6.69,2.49-1.67,5.27-2.51,8.36-2.51s5.76.83,8.26,2.48c2.51,1.65,4.5,3.86,5.98,6.62,1.48,2.77,2.22,5.82,2.22,9.16s-.72,6.26-2.15,9c-1.44,2.74-3.4,4.95-5.88,6.62-2.49,1.67-5.3,2.51-8.42,2.51-2.96,0-5.69-.8-8.2-2.41-2.51-1.61-4.51-3.78-6.01-6.53-1.5-2.74-2.25-5.81-2.25-9.2s.73-6.28,2.19-9.07Z"/>
  <path class="cls-2" d="M655.02,399.29c-1.48.45-3.03.68-4.66.68-1.93,0-3.7-.32-5.31-.96-1.61-.64-2.99-1.45-4.15-2.41-1.16-.96-1.99-1.87-2.51-2.73l-13.25,5.66c1.29,2.74,3.13,5.1,5.53,7.07,2.4,1.97,5.15,3.53,8.26,4.66s6.33,1.81,9.68,2.03c4.46.34,8.65-.3,12.57-1.93,3.92-1.63,7.13-4,9.61-7.11,2.49-3.11,3.73-6.74,3.73-10.9.09-3.64-.88-6.77-2.89-9.39-2.02-2.61-4.68-4.82-8.01-6.62-3.32-1.8-6.87-3.32-10.64-4.57-1.67-.51-3.42-.99-5.24-1.41-1.82-.43-3.38-1.04-4.66-1.83-1.29-.79-1.93-2-1.93-3.63,0-1.71.48-3.09,1.45-4.12s2.24-1.76,3.83-2.19c1.59-.43,3.34-.6,5.27-.51,1.5.09,2.94.42,4.31,1,1.37.58,2.59,1.31,3.67,2.19,1.07.88,1.91,1.83,2.51,2.86l12.41-7.33c-2.49-3.86-5.86-6.85-10.13-8.97-4.27-2.12-8.95-3.18-14.05-3.18-4.2,0-8.11.84-11.74,2.51-3.62,1.67-6.56,4.05-8.81,7.14-2.25,3.09-3.38,6.75-3.38,11,0,3.86,1.06,7.15,3.18,9.87,2.12,2.72,4.93,4.94,8.42,6.66,3.49,1.72,7.28,2.98,11.35,3.79,1.54.39,3.14.8,4.79,1.25,1.65.45,3.02,1.12,4.12,1.99,1.09.88,1.64,2.11,1.64,3.7,0,1.5-.46,2.72-1.38,3.67-.92.94-2.12,1.64-3.6,2.09Z"/>
  <polygon class="cls-2" points="722.51 347.81 701.22 373.22 701.22 315.66 685.53 315.66 685.53 412.12 701.22 412.12 701.22 397.59 710.23 386.85 724.89 412.12 742.96 412.12 720.97 374.12 743.03 347.81 722.51 347.81"/>
  <path class="cls-2" d="M412.92,515.31l-14.02-7.59c-2.53,3.13-5.65,5.65-9.36,7.56-3.71,1.91-7.71,2.86-11.99,2.86-3.94,0-7.64-.8-11.09-2.41-3.45-1.61-6.49-3.84-9.1-6.69-2.62-2.85-4.66-6.14-6.14-9.87-1.48-3.73-2.22-7.74-2.22-12.03s.73-8.24,2.19-11.99c1.46-3.75,3.49-7.05,6.11-9.9,2.61-2.85,5.66-5.08,9.13-6.69s7.18-2.41,11.13-2.41c4.2,0,8.18.94,11.93,2.83,3.75,1.89,6.89,4.4,9.42,7.52l14.02-7.52c-4.03-5.62-9.11-10.11-15.24-13.47-6.13-3.37-12.84-5.05-20.13-5.05-6.09,0-11.81,1.21-17.17,3.63-5.36,2.42-10.06,5.77-14.12,10.03-4.05,4.27-7.22,9.22-9.52,14.86-2.29,5.64-3.44,11.69-3.44,18.17s1.15,12.47,3.44,18.1c2.29,5.64,5.47,10.6,9.52,14.89,4.05,4.29,8.76,7.64,14.12,10.06,5.36,2.42,11.08,3.63,17.17,3.63,7.29,0,14-1.69,20.13-5.08,6.13-3.39,11.21-7.87,15.24-13.44Z"/>
  <path class="cls-2" d="M469.51,524.18l.71,7.97h15.69v-64.31h-15.69l.71,8.23c-2.36-2.91-5.22-5.32-8.59-7.2-3.37-1.89-7.17-2.83-11.42-2.83-4.59,0-8.87.86-12.86,2.57-3.99,1.72-7.5,4.09-10.55,7.14-3.04,3.04-5.41,6.58-7.11,10.61-1.69,4.03-2.54,8.34-2.54,12.93s.89,9.22,2.67,13.38c1.78,4.16,4.24,7.82,7.4,11,3.15,3.17,6.81,5.66,10.97,7.46,4.16,1.8,8.62,2.7,13.38,2.7,3.94,0,7.36-.89,10.26-2.67,2.89-1.78,5.22-4.1,6.98-6.98ZM460.77,516.21c-2.57,1.67-5.53,2.51-8.87,2.51s-6.25-.84-8.97-2.51c-2.72-1.67-4.9-3.92-6.53-6.75-1.63-2.83-2.44-5.98-2.44-9.45s.8-6.62,2.41-9.45c1.61-2.83,3.77-5.09,6.5-6.78,2.72-1.69,5.73-2.54,9.04-2.54s6.25.84,8.84,2.51c2.59,1.67,4.62,3.93,6.08,6.79,1.46,2.85,2.19,6.01,2.19,9.49s-.73,6.57-2.19,9.42c-1.46,2.85-3.47,5.11-6.05,6.79Z"/>
  <path class="cls-2" d="M522.38,468.07c-3.04,1.35-5.66,3.18-7.85,5.5l-.06-5.72h-15.69l.06,64.31h15.69v-36.53c0-2.53.61-4.83,1.83-6.91,1.22-2.08,2.87-3.73,4.95-4.95,2.08-1.22,4.38-1.83,6.91-1.83,1.63,0,3.26.32,4.89.96l6.17-15.82c-2.36-.69-4.72-1.03-7.07-1.03-3.52,0-6.8.68-9.84,2.03Z"/>
  <path class="cls-2" d="M635.76,490.55c-1.33-4.72-3.45-8.92-6.37-12.6-2.92-3.69-6.46-6.59-10.64-8.71-4.18-2.12-8.78-3.18-13.79-3.18-4.42,0-8.58.88-12.48,2.64-3.9,1.76-7.32,4.19-10.26,7.3-2.94,3.11-5.24,6.71-6.91,10.8-1.67,4.09-2.51,8.48-2.51,13.15,0,6.22,1.45,11.9,4.34,17.04,2.89,5.14,6.77,9.24,11.64,12.28,4.87,3.04,10.26,4.57,16.17,4.57,6.43,0,12.24-1.81,17.43-5.43,5.19-3.62,9.09-8.28,11.7-13.99l-16.01-3.73c-1.5,2.32-3.38,4.15-5.63,5.5-2.25,1.35-4.75,2-7.49,1.96-2.66-.04-5.04-.63-7.14-1.77-2.1-1.14-3.84-2.66-5.21-4.57-1.37-1.91-2.36-4.06-2.96-6.46h47.01c.73-5.14.43-10.07-.9-14.79ZM589.13,493.57c.56-2.61,1.6-4.96,3.12-7.04,1.52-2.08,3.38-3.73,5.56-4.95,2.19-1.22,4.57-1.83,7.14-1.83s4.97.62,7.2,1.86c2.23,1.24,4.1,2.91,5.63,4.98,1.52,2.08,2.52,4.41,2.99,6.98h-31.64Z"/>
  <rect class="cls-2" x="645.66" y="467.84" width="15.69" height="64.31"/>
  <g>
    <path class="cls-1" d="M760.61,339.52c-2.32,0-4.27-.76-5.85-2.28-1.59-1.52-2.38-3.44-2.38-5.76s.79-4.18,2.38-5.72c1.59-1.54,3.52-2.32,5.79-2.32s4.19.77,5.76,2.32c1.56,1.54,2.35,3.45,2.35,5.72s-.77,4.23-2.32,5.76c-1.54,1.52-3.45,2.28-5.72,2.28Z"/>
    <path class="cls-1" d="M352.86,339.52c2.27,0,4.18-.76,5.72-2.28,1.54-1.52,2.32-3.44,2.32-5.76s-.78-4.18-2.35-5.72c-1.57-1.54-3.48-2.32-5.76-2.32s-4.2.77-5.79,2.32c-1.59,1.54-2.38,3.45-2.38,5.72s.79,4.23,2.38,5.76c1.59,1.52,3.54,2.28,5.85,2.28Z"/>
    <path class="cls-1" d="M659.33,445.79c-1.57-1.54-3.48-2.32-5.76-2.32s-4.2.77-5.79,2.32c-1.59,1.54-2.38,3.45-2.38,5.72s.79,4.23,2.38,5.76c1.59,1.52,3.54,2.28,5.85,2.28s4.18-.76,5.72-2.28c1.54-1.52,2.32-3.44,2.32-5.76s-.78-4.18-2.35-5.72Z"/>
  </g>
  <path class="cls-2" d="M715.92,468.87c-3.37-1.89-7.17-2.83-11.42-2.83-4.59,0-8.88.86-12.86,2.57-3.99,1.72-7.5,4.09-10.55,7.14-3.04,3.04-5.41,6.58-7.11,10.61-1.69,4.03-2.54,8.34-2.54,12.93s.89,9.22,2.67,13.38c1.78,4.16,4.24,7.82,7.4,11,3.15,3.17,6.81,5.66,10.97,7.46,4.16,1.8,8.62,2.7,13.38,2.7,3.94,0,7.36-.89,10.26-2.67s5.22-4.1,6.98-6.98l.71,7.97h15.69v-64.31h-15.69l.71,8.23c-2.36-2.91-5.22-5.32-8.59-7.2ZM720.39,509.42c-1.46,2.85-3.47,5.11-6.04,6.79-2.57,1.67-5.53,2.51-8.88,2.51s-6.25-.84-8.97-2.51c-2.72-1.67-4.9-3.92-6.53-6.75-1.63-2.83-2.44-5.98-2.44-9.45s.8-6.62,2.41-9.45c1.61-2.83,3.77-5.09,6.49-6.78,2.72-1.69,5.73-2.54,9.04-2.54s6.25.84,8.84,2.51c2.59,1.67,4.62,3.93,6.08,6.79s2.19,6.01,2.19,9.49-.73,6.57-2.19,9.42Z"/>
  <rect class="cls-2" x="752.67" y="347.81" width="15.69" height="184.34"/>
  <polygon class="cls-2" points="204.95 562.15 183.02 619.84 161.09 562.15 148.1 562.15 130.6 652.19 146.62 652.19 157.36 596.49 177.61 650.13 188.35 650.13 208.61 596.49 219.42 652.19 235.43 652.19 217.94 562.15 204.95 562.15"/>
  <path class="cls-2" d="M293.25,596.11c-2.36-2.91-5.22-5.32-8.59-7.2-3.37-1.89-7.17-2.83-11.42-2.83-4.59,0-8.87.86-12.86,2.57-3.99,1.72-7.5,4.1-10.55,7.14-3.04,3.04-5.41,6.58-7.11,10.61-1.69,4.03-2.54,8.34-2.54,12.93s.89,9.22,2.67,13.38c1.78,4.16,4.24,7.82,7.4,11,3.15,3.17,6.81,5.66,10.97,7.46,4.16,1.8,8.62,2.7,13.38,2.7,3.94,0,7.36-.89,10.26-2.67,2.89-1.78,5.22-4.1,6.98-6.98l.71,7.97h15.69v-64.31h-15.69l.71,8.23ZM289.13,629.45c-1.46,2.85-3.47,5.11-6.05,6.79-2.57,1.67-5.53,2.51-8.87,2.51s-6.25-.84-8.97-2.51c-2.72-1.67-4.9-3.92-6.53-6.75-1.63-2.83-2.44-5.98-2.44-9.45s.8-6.62,2.41-9.45c1.61-2.83,3.77-5.09,6.5-6.78,2.72-1.69,5.73-2.54,9.04-2.54s6.25.84,8.84,2.51c2.59,1.67,4.62,3.93,6.08,6.79,1.46,2.85,2.19,6.01,2.19,9.49s-.73,6.57-2.19,9.42Z"/>
  <path class="cls-2" d="M367.53,595.66c-2.02-2.83-4.54-5.11-7.59-6.85-3.04-1.74-6.56-2.6-10.55-2.6-4.63,0-8.96.88-12.99,2.64-4.03,1.76-7.58,4.19-10.64,7.3-3.07,3.11-5.47,6.7-7.2,10.77-1.74,4.07-2.6,8.45-2.6,13.12s.87,9.05,2.6,13.12c1.74,4.07,4.14,7.66,7.2,10.77,3.07,3.11,6.61,5.54,10.64,7.3,4.03,1.76,8.36,2.64,12.99,2.64,3.99,0,7.5-.88,10.55-2.64,3.04-1.76,5.57-4.05,7.59-6.88v9.07c0,2.36-.53,4.47-1.58,6.34-1.05,1.86-2.5,3.45-4.34,4.76-1.84,1.31-3.91,2.3-6.21,2.99-2.29.69-4.68,1.03-7.17,1.03s-4.8-.51-7.07-1.51c-2.27-1.01-4.28-2.4-6.01-4.18-1.74-1.78-3.03-3.85-3.89-6.21l-14.34,6.49c1.67,4.07,4.1,7.71,7.3,10.9,3.19,3.19,6.87,5.71,11.03,7.56,4.16,1.84,8.49,2.77,12.99,2.77s9.05-.74,13.25-2.22c4.2-1.48,7.93-3.58,11.19-6.3,3.26-2.72,5.83-5.98,7.72-9.78,1.89-3.79,2.83-8.01,2.83-12.64v-65.53h-15.69v7.78ZM364.37,629.39c-1.46,2.85-3.46,5.12-6.01,6.82-2.55,1.69-5.48,2.54-8.78,2.54s-6.15-.84-8.81-2.51c-2.66-1.67-4.78-3.92-6.37-6.75-1.59-2.83-2.38-5.98-2.38-9.45s.79-6.62,2.38-9.45c1.59-2.83,3.71-5.09,6.37-6.78,2.66-1.69,5.6-2.54,8.81-2.54s6.16.86,8.71,2.57c2.55,1.72,4.57,3.99,6.04,6.82,1.48,2.83,2.22,5.96,2.22,9.39s-.73,6.51-2.19,9.36Z"/>
  <path class="cls-2" d="M444.89,589.52c-3.86-2.29-8.13-3.44-12.8-3.44-3.52,0-6.8.68-9.84,2.03-3.04,1.35-5.66,3.18-7.85,5.5l-.06-5.72h-15.69l.06,64.31h15.69v-36.53c0-2.53.61-4.83,1.83-6.91,1.22-2.08,2.87-3.73,4.95-4.95,2.08-1.22,4.38-1.83,6.91-1.83s4.83.61,6.91,1.83c2.08,1.22,3.74,2.87,4.98,4.95,1.24,2.08,1.86,4.38,1.86,6.91v36.53h15.69v-40.64c0-4.72-1.15-8.99-3.44-12.83-2.29-3.84-5.37-6.9-9.23-9.2Z"/>
  <path class="cls-2" d="M518.33,596.11c-2.36-2.91-5.22-5.32-8.59-7.2-3.37-1.89-7.17-2.83-11.42-2.83-4.59,0-8.88.86-12.86,2.57-3.99,1.72-7.5,4.1-10.55,7.14-3.04,3.04-5.41,6.58-7.11,10.61-1.69,4.03-2.54,8.34-2.54,12.93s.89,9.22,2.67,13.38c1.78,4.16,4.24,7.82,7.4,11,3.15,3.17,6.81,5.66,10.97,7.46,4.16,1.8,8.62,2.7,13.38,2.7,3.94,0,7.36-.89,10.26-2.67,2.89-1.78,5.22-4.1,6.98-6.98l.71,7.97h15.69v-64.31h-15.69l.71,8.23ZM514.22,629.45c-1.46,2.85-3.47,5.11-6.04,6.79-2.57,1.67-5.53,2.51-8.88,2.51s-6.25-.84-8.97-2.51c-2.72-1.67-4.9-3.92-6.53-6.75-1.63-2.83-2.44-5.98-2.44-9.45s.8-6.62,2.41-9.45c1.61-2.83,3.77-5.09,6.49-6.78,2.72-1.69,5.73-2.54,9.04-2.54s6.25.84,8.84,2.51c2.59,1.67,4.62,3.93,6.08,6.79s2.19,6.01,2.19,9.49-.73,6.57-2.19,9.42Z"/>
  <path class="cls-2" d="M597.82,590.64c-5.14-3.04-10.85-4.57-17.11-4.57-4.03,0-7.6.91-10.71,2.73-3.11,1.82-5.71,4.19-7.81,7.11v-40.19h0v-120.03h-15.69v129h0v87.49h15.69v-8.17c2.1,2.92,4.7,5.28,7.81,7.11,3.11,1.82,6.68,2.73,10.71,2.73,4.72,0,9.12-.88,13.22-2.64,4.09-1.76,7.7-4.19,10.8-7.3,3.11-3.11,5.54-6.72,7.3-10.84,1.76-4.12,2.64-8.51,2.64-13.18,0-6.22-1.52-11.89-4.57-17.01-3.04-5.12-7.14-9.21-12.28-12.25ZM596.15,629.36c-1.63,2.83-3.8,5.09-6.53,6.78-2.72,1.69-5.76,2.54-9.1,2.54s-6.17-.84-8.75-2.51c-2.57-1.67-4.59-3.93-6.04-6.78-1.46-2.85-2.19-6.01-2.19-9.49s.73-6.51,2.19-9.36c1.46-2.85,3.47-5.12,6.04-6.82,2.57-1.69,5.49-2.54,8.75-2.54s6.32.84,9.07,2.51c2.74,1.67,4.93,3.93,6.56,6.79,1.63,2.85,2.44,5.99,2.44,9.42s-.81,6.62-2.44,9.45Z"/>
  <path class="cls-2" d="M669.43,590.64c-4.87-3.04-10.26-4.57-16.17-4.57-4.42,0-8.58.88-12.48,2.64-3.9,1.76-7.32,4.19-10.26,7.3-2.94,3.11-5.24,6.71-6.91,10.8-1.67,4.09-2.51,8.5-2.51,13.22,0,6.22,1.45,11.89,4.34,17.01,2.89,5.12,6.77,9.21,11.64,12.25,4.87,3.04,10.26,4.57,16.17,4.57,4.46,0,8.63-.88,12.51-2.64,3.88-1.76,7.29-4.19,10.23-7.3,2.94-3.11,5.24-6.7,6.91-10.77,1.67-4.07,2.51-8.45,2.51-13.12,0-6.26-1.45-11.96-4.34-17.11-2.89-5.14-6.77-9.24-11.64-12.28ZM667.56,629.03c-1.44,2.74-3.4,4.95-5.88,6.62-2.49,1.67-5.3,2.51-8.42,2.51-2.96,0-5.69-.8-8.2-2.41-2.51-1.61-4.51-3.78-6.01-6.53-1.5-2.74-2.25-5.81-2.25-9.2s.73-6.28,2.19-9.07c1.46-2.79,3.43-5.02,5.92-6.69,2.49-1.67,5.27-2.51,8.36-2.51s5.76.83,8.26,2.48c2.51,1.65,4.5,3.86,5.98,6.62s2.22,5.82,2.22,9.16-.72,6.26-2.15,9Z"/>
  <path class="cls-2" d="M712.81,599.64c1.59-.43,3.34-.6,5.27-.52,1.5.09,2.94.42,4.31,1,1.37.58,2.59,1.31,3.67,2.19,1.07.88,1.91,1.83,2.51,2.86l12.41-7.33c-2.49-3.86-5.86-6.85-10.13-8.97-4.27-2.12-8.95-3.18-14.05-3.18-4.2,0-8.11.84-11.74,2.51-3.62,1.67-6.56,4.05-8.81,7.14-2.25,3.09-3.38,6.75-3.38,11,0,3.86,1.06,7.15,3.18,9.87,2.12,2.72,4.93,4.94,8.42,6.66,3.49,1.72,7.28,2.98,11.35,3.79,1.54.39,3.14.8,4.79,1.25,1.65.45,3.02,1.12,4.12,1.99,1.09.88,1.64,2.11,1.64,3.7,0,1.5-.46,2.72-1.38,3.67-.92.94-2.12,1.64-3.6,2.09s-3.03.68-4.66.68c-1.93,0-3.7-.32-5.31-.96-1.61-.64-2.99-1.45-4.15-2.41-1.16-.96-1.99-1.88-2.51-2.73l-13.25,5.66c1.29,2.74,3.13,5.1,5.53,7.07,2.4,1.97,5.15,3.53,8.26,4.66,3.11,1.14,6.33,1.81,9.68,2.03,4.46.34,8.65-.3,12.57-1.93,3.92-1.63,7.13-4,9.61-7.11,2.49-3.11,3.73-6.74,3.73-10.9.09-3.64-.88-6.77-2.89-9.39-2.02-2.61-4.68-4.82-8.01-6.62-3.32-1.8-6.87-3.32-10.64-4.57-1.67-.51-3.42-.99-5.24-1.42-1.82-.43-3.38-1.04-4.66-1.83-1.29-.79-1.93-2-1.93-3.63,0-1.71.48-3.09,1.45-4.12.96-1.03,2.24-1.76,3.83-2.19Z"/>
  <path class="cls-2" d="M770.88,604.31c2.49-1.69,5.27-2.54,8.36-2.54,2.14,0,4.23.47,6.27,1.41,2.04.94,3.8,2.27,5.31,3.99l14.15-7.59c-2.96-4.12-6.67-7.4-11.13-9.84-4.46-2.44-9.33-3.67-14.6-3.67-4.42,0-8.58.88-12.48,2.64-3.9,1.76-7.32,4.19-10.26,7.3-2.94,3.11-5.24,6.71-6.91,10.8-1.67,4.09-2.51,8.5-2.51,13.22,0,6.22,1.45,11.89,4.34,17.01,2.89,5.12,6.77,9.21,11.64,12.25,4.87,3.04,10.26,4.57,16.17,4.57,5.27,0,10.14-1.22,14.6-3.67,4.46-2.44,8.17-5.68,11.13-9.71l-14.15-7.65c-1.46,1.63-3.19,2.93-5.21,3.89-2.02.97-4.14,1.45-6.37,1.45-3.09,0-5.87-.84-8.36-2.51-2.49-1.67-4.46-3.89-5.92-6.66-1.46-2.77-2.19-5.76-2.19-8.97s.73-6.27,2.19-9.04c1.46-2.77,3.43-4.99,5.92-6.69Z"/>
  <path class="cls-2" d="M870.66,602.92c-2.89-5.14-6.77-9.24-11.64-12.28-4.87-3.04-10.26-4.57-16.17-4.57-4.42,0-8.58.88-12.48,2.64-3.9,1.76-7.32,4.19-10.26,7.3-2.94,3.11-5.24,6.71-6.91,10.8-1.67,4.09-2.51,8.5-2.51,13.22,0,6.22,1.45,11.89,4.34,17.01,2.89,5.12,6.77,9.21,11.64,12.25,4.87,3.04,10.26,4.57,16.17,4.57,4.46,0,8.63-.88,12.51-2.64,3.88-1.76,7.29-4.19,10.23-7.3,2.94-3.11,5.24-6.7,6.91-10.77,1.67-4.07,2.51-8.45,2.51-13.12,0-6.26-1.45-11.96-4.34-17.11ZM857.15,629.03c-1.44,2.74-3.4,4.95-5.88,6.62-2.49,1.67-5.3,2.51-8.42,2.51-2.96,0-5.69-.8-8.2-2.41-2.51-1.61-4.51-3.78-6.01-6.53-1.5-2.74-2.25-5.81-2.25-9.2s.73-6.28,2.19-9.07c1.46-2.79,3.43-5.02,5.92-6.69,2.49-1.67,5.27-2.51,8.36-2.51s5.76.83,8.26,2.48c2.51,1.65,4.5,3.86,5.98,6.62,1.48,2.77,2.22,5.82,2.22,9.16s-.72,6.26-2.15,9Z"/>
</svg>